# xmcd
#
# Track frame offsets: 
#        150
#        22439
#        38314
#        61042
#        75562
#        91710
#        110436
#        121314
#        135754
#        147088
#        162269
#
# Disc length: 2392 seconds
#
# Revision: 0
# Processed by: cddbd v1.5.2PL0 Copyright (c) Steve Scherf et al.
# Submitted via: ExactAudioCopy v1.0b3
#
DISCID=7b09560b
DTITLE=Roger Chapman - Old Songs New Songs
DYEAR=1969
DGENRE=Blues
TTITLE0=Hung up down
TTITLE1=Today
TTITLE2=Observation from a hill
TTITLE3=Good friend of mine
TTITLE4=Drowned in wine
TTITLE5=Peace of mind
TTITLE6=Hometown
TTITLE7=The cat and the rat
TTITLE8=No Mule's fool
TTITLE9=See through windows
TTITLE10=The weaver's answer
EXTD=
EXTT0=
EXTT1=
EXTT2=
EXTT3=
EXTT4=
EXTT5=
EXTT6=
EXTT7=
EXTT8=
EXTT9=
EXTT10=
PLAYORDER=
